# Blender v2.79 (sub 0) OBJ File: ''
# www.blender.org
mtllib 7.mtl
o Seven
v 2.390501 0.706786 0.410178
v 2.390501 0.000000 0.410178
v 2.390501 0.706786 0.000000
v 2.390501 0.000000 0.000000
v 1.287871 0.706786 2.827142
v 1.287871 0.000000 2.827142
v 0.577778 0.706786 2.827142
v 0.577778 0.000000 2.827142
v 1.620866 0.706786 0.535878
v 1.620866 0.000000 0.535878
v 0.260221 0.706786 0.535878
v 0.260221 0.000000 0.535878
v 0.260221 0.706786 0.000000
v 0.260221 0.000000 0.000000
vn 1.0000 0.0000 0.0000
vn 0.9098 0.0000 0.4151
vn 0.0000 0.0000 1.0000
vn -0.9101 0.0000 -0.4143
vn -1.0000 0.0000 0.0000
vn 0.0000 0.0000 -1.0000
vn 0.0000 1.0000 0.0000
vn 0.0000 -1.0000 0.0000
usemtl None
s off
f 1//1 2//1 3//1
f 3//1 2//1 4//1
f 5//2 6//2 1//2
f 1//2 6//2 2//2
f 7//3 8//3 5//3
f 5//3 8//3 6//3
f 9//4 10//4 7//4
f 7//4 10//4 8//4
f 11//3 12//3 9//3
f 9//3 12//3 10//3
f 13//5 14//5 11//5
f 11//5 14//5 12//5
f 3//6 4//6 13//6
f 13//6 4//6 14//6
f 5//7 1//7 9//7
f 7//7 5//7 9//7
f 1//7 3//7 9//7
f 9//7 3//7 13//7
f 11//7 9//7 13//7
f 12//8 14//8 10//8
f 10//8 14//8 4//8
f 2//8 10//8 4//8
f 2//8 6//8 10//8
f 10//8 6//8 8//8
