# Blender v2.79 (sub 0) OBJ File: ''
# www.blender.org
mtllib f.mtl
o Letter_F
v 2.061837 0.564802 0.489515
v 2.061837 0.000000 0.489515
v 2.061837 0.564802 0.000000
v 2.061837 0.000000 0.000000
v 0.963365 0.564802 0.489515
v 0.963365 0.000000 0.489515
v 0.963365 0.564802 0.957491
v 0.963365 0.000000 0.957491
v 1.995263 0.564802 0.957491
v 1.995263 0.000000 0.957491
v 1.995263 0.564802 1.447006
v 1.995263 0.000000 1.447006
v 0.963365 0.564802 1.447006
v 0.963365 0.000000 1.447006
v 0.963365 0.564802 2.510233
v 0.963365 0.000000 2.510233
v 0.315248 0.564802 2.510233
v 0.315248 0.000000 2.510233
v 0.315248 0.564802 0.000000
v 0.315248 0.000000 0.000000
vn 1.0000 0.0000 0.0000
vn 0.0000 0.0000 1.0000
vn 0.0000 0.0000 -1.0000
vn -1.0000 0.0000 0.0000
vn 0.0000 1.0000 0.0000
vn 0.0000 -1.0000 0.0000
usemtl None
s off
f 1//1 2//1 3//1
f 3//1 2//1 4//1
f 5//2 6//2 1//2
f 1//2 6//2 2//2
f 7//1 8//1 5//1
f 5//1 8//1 6//1
f 9//3 10//3 7//3
f 7//3 10//3 8//3
f 11//1 12//1 9//1
f 9//1 12//1 10//1
f 13//2 14//2 11//2
f 11//2 14//2 12//2
f 15//1 16//1 13//1
f 13//1 16//1 14//1
f 17//2 18//2 15//2
f 15//2 18//2 16//2
f 19//4 20//4 17//4
f 17//4 20//4 18//4
f 3//3 4//3 19//3
f 19//3 4//3 20//3
f 1//5 3//5 5//5
f 5//5 3//5 19//5
f 7//5 19//5 13//5
f 11//5 7//5 13//5
f 11//5 9//5 7//5
f 19//5 17//5 13//5
f 13//5 17//5 15//5
f 7//5 5//5 19//5
f 4//6 6//6 20//6
f 4//6 2//6 6//6
f 6//6 8//6 20//6
f 20//6 8//6 14//6
f 18//6 14//6 16//6
f 18//6 20//6 14//6
f 8//6 10//6 14//6
f 14//6 10//6 12//6
